<svg xmlns="http://www.w3.org/2000/svg" xmlns:xlink="http://www.w3.org/1999/xlink" width="500" zoomAndPan="magnify" viewBox="0 0 375 374.999991" height="500" preserveAspectRatio="xMidYMid meet" version="1.0"><path fill="#22a0e0" d="M 294.390625 90.484375 C 282.65625 90.484375 271.40625 92.859375 261.5625 97.59375 C 250.078125 76.953125 228.296875 62.734375 203.921875 62.734375 C 201.695312 62.734375 199.476562 62.847656 197.261719 63.074219 C 195.050781 63.304688 192.851562 63.644531 190.675781 64.09375 C 188.496094 64.546875 186.34375 65.109375 184.222656 65.78125 C 182.101562 66.457031 180.023438 67.234375 177.980469 68.121094 C 175.9375 69.007812 173.949219 69.996094 172.007812 71.085938 C 170.066406 72.175781 168.1875 73.359375 166.371094 74.644531 C 164.550781 75.925781 162.804688 77.296875 161.125 78.761719 C 159.445312 80.222656 157.847656 81.765625 156.328125 83.390625 L 156.09375 83.15625 C 154.386719 80.941406 152.554688 78.832031 150.605469 76.828125 C 148.65625 74.824219 146.597656 72.9375 144.429688 71.171875 C 142.265625 69.402344 140.003906 67.761719 137.648438 66.253906 C 135.292969 64.746094 132.863281 63.375 130.351562 62.144531 C 127.839844 60.914062 125.265625 59.832031 122.628906 58.898438 C 119.992188 57.964844 117.3125 57.183594 114.589844 56.554688 C 111.863281 55.925781 109.109375 55.457031 106.332031 55.144531 C 103.554688 54.832031 100.765625 54.679688 97.96875 54.6875 C 58.125 54.6875 25.3125 87.40625 25.3125 128.203125 C 25.3125 138.421875 27.421875 148.375 31.40625 157.390625 C 29.015625 158.816406 26.726562 160.390625 24.542969 162.117188 C 22.355469 163.839844 20.292969 165.695312 18.347656 167.6875 C 16.402344 169.679688 14.59375 171.785156 12.921875 174.011719 C 11.25 176.238281 9.726562 178.5625 8.355469 180.984375 C 6.984375 183.40625 5.777344 185.90625 4.730469 188.484375 C 3.683594 191.066406 2.808594 193.699219 2.101562 196.394531 C 1.398438 199.085938 0.867188 201.8125 0.515625 204.574219 C 0.164062 207.335938 -0.0078125 210.105469 0 212.890625 C 0 248.46875 28.140625 276.921875 62.578125 276.921875 C 67.03125 276.921875 71.25 276.703125 75.46875 275.734375 C 76.046875 277.351562 76.691406 278.945312 77.390625 280.515625 C 78.09375 282.085938 78.855469 283.625 79.675781 285.136719 C 80.496094 286.648438 81.371094 288.125 82.304688 289.566406 C 83.238281 291.011719 84.226562 292.417969 85.265625 293.785156 C 86.308594 295.152344 87.398438 296.480469 88.542969 297.761719 C 89.683594 299.046875 90.875 300.285156 92.113281 301.480469 C 93.351562 302.671875 94.632812 303.816406 95.957031 304.910156 C 97.285156 306.003906 98.648438 307.046875 100.054688 308.039062 C 101.460938 309.027344 102.902344 309.960938 104.378906 310.84375 C 105.855469 311.722656 107.363281 312.542969 108.902344 313.308594 C 110.445312 314.070312 112.011719 314.773438 113.605469 315.417969 C 115.199219 316.0625 116.816406 316.644531 118.453125 317.164062 C 120.09375 317.683594 121.75 318.140625 123.421875 318.53125 C 125.097656 318.925781 126.78125 319.253906 128.480469 319.515625 C 130.179688 319.78125 131.886719 319.980469 133.601562 320.113281 C 135.3125 320.246094 137.03125 320.3125 138.75 320.3125 C 140.398438 320.308594 142.046875 320.246094 143.691406 320.121094 C 145.339844 320 146.976562 319.816406 148.609375 319.570312 C 150.238281 319.328125 151.859375 319.023438 153.46875 318.660156 C 155.078125 318.296875 156.671875 317.875 158.253906 317.394531 C 159.832031 316.914062 161.390625 316.378906 162.929688 315.785156 C 164.46875 315.1875 165.984375 314.539062 167.472656 313.832031 C 168.964844 313.125 170.429688 312.367188 171.863281 311.554688 C 173.300781 310.742188 174.703125 309.875 176.074219 308.960938 C 177.449219 308.042969 178.785156 307.078125 180.085938 306.0625 C 181.386719 305.046875 182.648438 303.988281 183.871094 302.878906 C 185.09375 301.773438 186.277344 300.621094 187.414062 299.429688 C 188.554688 298.234375 189.648438 297 190.695312 295.726562 C 191.742188 294.453125 192.742188 293.140625 193.695312 291.792969 C 194.648438 290.445312 195.546875 289.066406 196.398438 287.652344 C 197.25 286.238281 198.046875 284.792969 198.789062 283.320312 C 199.535156 281.847656 200.226562 280.351562 200.859375 278.828125 C 208.59375 282.390625 217.265625 284.75 226.640625 284.75 C 229.273438 284.75 231.894531 284.574219 234.503906 284.222656 C 237.113281 283.871094 239.683594 283.34375 242.222656 282.640625 C 244.761719 281.941406 247.238281 281.074219 249.660156 280.039062 C 252.082031 279.003906 254.421875 277.8125 256.679688 276.460938 C 258.941406 275.109375 261.097656 273.613281 263.15625 271.96875 C 265.214844 270.328125 267.152344 268.554688 268.96875 266.652344 C 270.789062 264.746094 272.46875 262.730469 274.015625 260.597656 C 275.5625 258.464844 276.957031 256.242188 278.203125 253.921875 C 283.375 254.875 288.75 255.5625 294.140625 255.5625 C 338.90625 255.5625 375.015625 218.5625 375.015625 173.03125 C 375.015625 127.5 338.90625 90.484375 294.390625 90.484375 Z M 294.390625 90.484375 " fill-opacity="1" fill-rule="nonzero"/><path fill="#5ce1e6" d="M 267.757812 188.058594 C 267.757812 189.933594 267.070312 191.558594 265.699219 192.929688 C 264.328125 194.300781 262.703125 194.988281 260.828125 194.988281 L 236.570312 194.988281 C 236.570312 207.332031 234.152344 217.800781 229.316406 226.390625 L 251.839844 249.023438 C 253.210938 250.394531 253.894531 252.019531 253.894531 253.894531 C 253.894531 255.773438 253.210938 257.398438 251.839844 258.769531 C 250.539062 260.140625 248.914062 260.828125 246.964844 260.828125 C 245.015625 260.828125 243.390625 260.140625 242.09375 258.769531 L 220.652344 237.4375 C 220.292969 237.796875 219.75 238.265625 219.027344 238.84375 C 218.304688 239.421875 216.789062 240.449219 214.480469 241.929688 C 212.167969 243.410156 209.824219 244.726562 207.441406 245.882812 C 205.058594 247.039062 202.097656 248.085938 198.5625 249.023438 C 195.023438 249.960938 191.523438 250.429688 188.058594 250.429688 L 188.058594 153.40625 L 174.195312 153.40625 L 174.195312 250.429688 C 170.515625 250.429688 166.851562 249.945312 163.207031 248.96875 C 159.558594 247.996094 156.417969 246.804688 153.785156 245.394531 C 151.148438 243.988281 148.765625 242.582031 146.636719 241.171875 C 144.507812 239.765625 142.9375 238.589844 141.925781 237.652344 L 140.304688 236.136719 L 120.488281 258.550781 C 119.042969 260.070312 117.308594 260.828125 115.289062 260.828125 C 113.554688 260.828125 112.003906 260.25 110.632812 259.09375 C 109.261719 257.792969 108.519531 256.1875 108.414062 254.273438 C 108.304688 252.363281 108.863281 250.683594 110.089844 249.238281 L 131.964844 224.660156 C 127.777344 216.429688 125.683594 206.539062 125.683594 194.988281 L 101.429688 194.988281 C 99.550781 194.988281 97.925781 194.300781 96.554688 192.929688 C 95.183594 191.558594 94.496094 189.933594 94.496094 188.058594 C 94.496094 186.179688 95.183594 184.554688 96.554688 183.183594 C 97.925781 181.8125 99.550781 181.128906 101.429688 181.128906 L 125.683594 181.128906 L 125.683594 149.289062 L 106.949219 130.558594 C 105.578125 129.183594 104.894531 127.5625 104.894531 125.683594 C 104.894531 123.808594 105.578125 122.183594 106.949219 120.8125 C 108.320312 119.441406 109.945312 118.753906 111.824219 118.753906 C 113.699219 118.753906 115.324219 119.441406 116.695312 120.8125 L 135.429688 139.546875 L 226.824219 139.546875 L 245.558594 120.8125 C 246.929688 119.441406 248.554688 118.753906 250.429688 118.753906 C 252.308594 118.753906 253.933594 119.441406 255.304688 120.8125 C 256.675781 122.183594 257.363281 123.808594 257.363281 125.683594 C 257.363281 127.5625 256.675781 129.183594 255.304688 130.558594 L 236.570312 149.289062 L 236.570312 181.128906 L 260.828125 181.128906 C 262.703125 181.128906 264.328125 181.8125 265.699219 183.183594 C 267.070312 184.554688 267.757812 186.179688 267.757812 188.058594 Z M 215.777344 125.683594 L 146.476562 125.683594 C 146.476562 116.082031 149.851562 107.90625 156.601562 101.15625 C 163.351562 94.40625 171.527344 91.03125 181.128906 91.03125 C 190.730469 91.03125 198.90625 94.40625 205.65625 101.15625 C 212.40625 107.90625 215.777344 116.082031 215.777344 125.683594 Z M 215.777344 125.683594 " fill-opacity="1" fill-rule="nonzero"/></svg>